<svg xmlns="http://www.w3.org/2000/svg" width="24" height="18" fill="none"><path fill="#fff" fill-rule="evenodd" d="M1.7 2.91C.97 3.94.908 5.048.782 7.262.748 7.87.727 8.462.727 9c0 .537.02 1.13.055 1.738.126 2.214.189 3.321.918 4.352.208.294.56.667.84.892.987.789 2.089.917 4.293 1.174 1.672.194 3.54.344 5.325.344 1.785 0 3.652-.15 5.324-.344 2.204-.257 3.307-.385 4.292-1.174a4.93 4.93 0 0 0 .84-.892c.73-1.03.793-2.138.919-4.352.034-.608.056-1.2.056-1.738 0-.537-.022-1.13-.056-1.738-.126-2.214-.189-3.321-.918-4.352a5.003 5.003 0 0 0-.84-.892c-.986-.789-2.089-.917-4.293-1.174C15.81.65 13.942.5 12.158.5c-1.785 0-3.653.15-5.325.344-2.204.257-3.306.385-4.292 1.174a5.004 5.004 0 0 0-.84.892Zm14.014 5.422c-.25-.61-1.127-1.048-2.88-1.924-1.457-.73-2.187-1.094-2.777-.977a1.759 1.759 0 0 0-1.048.648C8.64 6.554 8.64 7.369 8.64 9c0 1.63 0 2.446.369 2.921.26.336.632.566 1.048.648.59.117 1.32-.247 2.778-.977 1.752-.876 2.629-1.314 2.88-1.924a1.758 1.758 0 0 0 0-1.336Z" clip-rule="evenodd"/></svg>